<svg id="Vrstva_1" data-name="Vrstva 1" xmlns="http://www.w3.org/2000/svg" viewBox="0 0 589.47 122.51"><defs><style>.cls-1{fill:#e05743;}.cls-2{fill:#fff;}.cls-3{fill:#50596f;}</style></defs><title>Logo Calculoid</title><path class="cls-1" d="M278.79,445.66a61.26,61.26,0,1,0-61.26-61.26,61.25,61.25,0,0,0,61.26,61.26" transform="translate(-217.53 -323.15)"/><path class="cls-2" d="M275.65,402.6a24.81,24.81,0,0,1-35.62,0,26.21,26.21,0,0,1,0-36.4,24.81,24.81,0,0,1,35.18-.44l-3.58,3.66a19.82,19.82,0,0,0-28,.44,21,21,0,0,0,0,29.09,19.83,19.83,0,0,0,28.47,0l21-21.41a9.35,9.35,0,0,1,13.43,0,9.9,9.9,0,0,1,0,13.72,9.35,9.35,0,0,1-13,.43l3.59-3.67a4.36,4.36,0,0,0,5.81-.41,4.64,4.64,0,0,0,0-6.41,4.36,4.36,0,0,0-6.28,0l-21,21.41m6.28-36.4a24.81,24.81,0,0,1,35.62,0,26.21,26.21,0,0,1,0,36.4,24.81,24.81,0,0,1-35.18.44l3.58-3.66a19.82,19.82,0,0,0,28-.44,21,21,0,0,0,0-29.09,19.83,19.83,0,0,0-28.47,0l-20.95,21.41a9.35,9.35,0,0,1-13.43,0,9.9,9.9,0,0,1,0-13.72,9.35,9.35,0,0,1,13-.43l-3.59,3.67a4.36,4.36,0,0,0-5.81.42,4.64,4.64,0,0,0,0,6.41,4.37,4.37,0,0,0,6.28,0Z" transform="translate(-217.53 -323.15)"/><path class="cls-3" d="M732.13,367.41a8.79,8.79,0,1,0-6.15,2.51,8.37,8.37,0,0,0,6.15-2.51m60.6-11.24a40.83,40.83,0,0,1-4.77,9.42,108.85,108.85,0,0,1-11.49,14.51q-3.27,3.64-6.28,6.72t-5.9,5.72a84.39,84.39,0,0,1,3.64-9,102.76,102.76,0,0,1,5.27-9.8,111.75,111.75,0,0,1,6.66-9.74,88.82,88.82,0,0,1,7.79-8.92q3-3,4.52-2.64t0.57,3.71m-36.87,28.7a81.55,81.55,0,0,0-3.89,10,50.06,50.06,0,0,0-2,9.23,34.8,34.8,0,0,1-9.55,4.65q-3.9,1-5.4-.75a4.46,4.46,0,0,1-.94-3.77,15.68,15.68,0,0,1,1.76-5.15,30.79,30.79,0,0,1,3.77-5.53,33.15,33.15,0,0,1,5.09-4.9,22.92,22.92,0,0,1,5.65-3.27,9.11,9.11,0,0,1,5.53-.5M675.49,387a26.9,26.9,0,0,1-3,9.29,39.16,39.16,0,0,1-5.53,8.23,19.13,19.13,0,0,1-6.09,4.84q-3,1.38-4.77-.75a5.7,5.7,0,0,1-.94-4.4,21.93,21.93,0,0,1,1.7-6.15,33.08,33.08,0,0,1,3.58-6.34,21.64,21.64,0,0,1,4.77-5,10,10,0,0,1,5.21-2.07,6.28,6.28,0,0,1,5,2.32m-57.9,7.41a44.52,44.52,0,0,1,3-9.23,82,82,0,0,1,5-9.48q2.83-4.64,5.9-8.79a74.24,74.24,0,0,1,5.84-7,27.49,27.49,0,0,1,5-4.27q2.2-1.38,3.2-.63,1.63,1.51-.5,6.16a62.65,62.65,0,0,1-6.47,10.55,142.45,142.45,0,0,1-10,12.06,128.47,128.47,0,0,1-10.93,10.68m-140.92,0a44.52,44.52,0,0,1,3-9.23,82,82,0,0,1,5-9.48q2.83-4.64,5.9-8.79a74.23,74.23,0,0,1,5.84-7,27.49,27.49,0,0,1,5-4.27q2.2-1.38,3.2-.63,1.63,1.51-.5,6.16a62.74,62.74,0,0,1-6.47,10.55,142.82,142.82,0,0,1-10,12.06,128.48,128.48,0,0,1-10.93,10.68m-33.54-9.29a27.85,27.85,0,0,0-2.14,2.7,33,33,0,0,0-2,3.33,54.14,54.14,0,0,0-5.27,14.07,42.25,42.25,0,0,1-4.46,2.39,19.54,19.54,0,0,1-4,1.38,7,7,0,0,1-3.08.06,3.34,3.34,0,0,1-2.07-1.44,5.59,5.59,0,0,1-.5-4.4,16.61,16.61,0,0,1,2.39-5.15,29.23,29.23,0,0,1,4.46-5.15,41.57,41.57,0,0,1,5.59-4.4,26.13,26.13,0,0,1,5.84-2.89,9.7,9.7,0,0,1,5.21-.5M805.8,339.58q-1.82-2.82-6.09-2.57t-10,4.52A82.7,82.7,0,0,0,781,349a108.31,108.31,0,0,0-8.23,9.11q-4,4.9-7.54,10.17A118.83,118.83,0,0,0,758.76,379a17.25,17.25,0,0,0-10.55-.94A29.64,29.64,0,0,0,738,382.48a37.49,37.49,0,0,0-8.6,8.1,41.44,41.44,0,0,0-5.84,10c-0.07.16-.11,0.33-0.17,0.49h0a49.61,49.61,0,0,1-4.21,3.71,33,33,0,0,1-4.9,3.26,15.36,15.36,0,0,1-4.65,1.7,3.55,3.55,0,0,1-3.45-1,2.81,2.81,0,0,1-.44-2.76,21,21,0,0,1,1.63-4.33q1.19-2.45,2.89-5.21t3.39-5.4q1.69-2.64,3.14-5a28.92,28.92,0,0,0,2.07-3.83q1-2.26.31-3.27a2.48,2.48,0,0,0-2.2-1,10.08,10.08,0,0,0-3.58.82,13.44,13.44,0,0,0-3.83,2.32q-1.88,1.51-4.27,3.64c-0.62.55-1.24,1.16-1.86,1.78l-0.15,0q-3.9-.38-6.72-0.94a30.62,30.62,0,0,1-5.09-1.45,28.13,28.13,0,0,1-4.08-1.95l-3.71-2.2a8.06,8.06,0,0,0-4.14-1.45,3.8,3.8,0,0,0-2.64,1.07,10.65,10.65,0,0,0-8.54-2.76,23.17,23.17,0,0,0-9.8,3.52,39.73,39.73,0,0,0-9.11,7.85,37.54,37.54,0,0,0-6.47,10.3,27,27,0,0,0-.92,2.62,51.56,51.56,0,0,1-5.42,4.42,25.76,25.76,0,0,1-6.22,3.33,13.16,13.16,0,0,1-6.16.75,7.59,7.59,0,0,1-5.15-3.14,8.76,8.76,0,0,1-1.76-3.77q16.58-12.56,25.94-23.93T656,358.93q3.39-8.48,1.51-13.5t-7.66-5a16,16,0,0,0-8.35,2.76,53.77,53.77,0,0,0-9,7.22,83.25,83.25,0,0,0-8.86,10.24q-4.27,5.78-8,11.74A116.64,116.64,0,0,0,609.23,384a67.72,67.72,0,0,0-4,10.11,46.33,46.33,0,0,0-1.49,7q-2.71,2.57-5.23,4.55a31.38,31.38,0,0,1-4.9,3.2,13.21,13.21,0,0,1-4.21,1.45,4.29,4.29,0,0,1-3.14-.63,3.38,3.38,0,0,1-1.26-2.26,76.17,76.17,0,0,0,7.1-8.16,56,56,0,0,0,5.15-8.1,21.26,21.26,0,0,0,2.32-7,5.94,5.94,0,0,0-1.25-5,4,4,0,0,0-3.89-1.19,13.26,13.26,0,0,0-5,2.26,32.65,32.65,0,0,0-5.4,4.84,43.13,43.13,0,0,0-5,6.72,50.38,50.38,0,0,0-3.83,7.66,28.63,28.63,0,0,0-1.95,7.73,24.29,24.29,0,0,1-7.91,4q-3.52.88-5.65-1.13-1-1-.75-3.45a19.89,19.89,0,0,1,1.76-5.84,52.39,52.39,0,0,1,4.21-7.47,63.13,63.13,0,0,1,6.72-8.35q3-3.26,2.7-4.84a2.47,2.47,0,0,0-2.39-1.88,12.34,12.34,0,0,0-5.21.63,23.54,23.54,0,0,0-5.9,2.7,35.27,35.27,0,0,0-8.6,8.16,38.41,38.41,0,0,0-5.59,10.11c-0.16.45-.28,0.9-0.41,1.35a31.88,31.88,0,0,1-7.12,5.31,30.24,30.24,0,0,1-8,3.08,20.82,20.82,0,0,1-7.47.38,9.59,9.59,0,0,1-5.59-2.64,7.16,7.16,0,0,1-1.95-6.22,17.94,17.94,0,0,1,2.76-7.54,23,23,0,0,1,6-6.41,13.1,13.1,0,0,1,7.85-2.7,4.55,4.55,0,0,0-1.95,2.45,4.82,4.82,0,0,0,1.76,5.34,5.54,5.54,0,0,0,3.45,1,7.15,7.15,0,0,0,4.27-1.25,7.48,7.48,0,0,0,2.57-3.14,8.5,8.5,0,0,0,.63-4.15,8.31,8.31,0,0,0-1.51-4.14,9.94,9.94,0,0,0-3.89-3.14,15.07,15.07,0,0,0-6.59-1.26,28,28,0,0,0-13.94,3.39,30.73,30.73,0,0,0-9.8,8.48,31.33,31.33,0,0,0-5.28,11.05c-0.09.34-.13,0.67-0.2,1a12.87,12.87,0,0,0-1,.94,51.58,51.58,0,0,1-5.46,4.46,25.73,25.73,0,0,1-6.22,3.33,13.16,13.16,0,0,1-6.16.75,7.59,7.59,0,0,1-5.15-3.14,8.76,8.76,0,0,1-1.76-3.77q16.58-12.56,25.94-23.93t12.75-19.85q3.39-8.48,1.51-13.5t-7.66-5a16,16,0,0,0-8.35,2.76,53.77,53.77,0,0,0-9,7.22,83.09,83.09,0,0,0-8.85,10.24q-4.27,5.78-8,11.74A116.27,116.27,0,0,0,468.31,384a67.74,67.74,0,0,0-4,10.11,46.26,46.26,0,0,0-1.49,7q-6.59,6.56-10.76,8.69t-6.09,1a2.28,2.28,0,0,1-1.19-1.88,12.35,12.35,0,0,1,.06-3.27,68.91,68.91,0,0,0,6.59-7.91,57.79,57.79,0,0,0,5-8.29,8.92,8.92,0,0,0,.94-4.46,5.43,5.43,0,0,0-1.32-3.2,4.81,4.81,0,0,0-3.08-1.51,8.57,8.57,0,0,0-4.21.63,13.87,13.87,0,0,0-9.8-3.52,28.37,28.37,0,0,0-11.43,2.83,46.44,46.44,0,0,0-11,7.29,40.3,40.3,0,0,0-8.35,10,29.17,29.17,0,0,0-1.69,3.46l-0.07.06a31.88,31.88,0,0,1-7.29,5.46,30.2,30.2,0,0,1-8,3.08,20.82,20.82,0,0,1-7.47.38,9.58,9.58,0,0,1-5.59-2.64,7.16,7.16,0,0,1-1.95-6.22,18,18,0,0,1,2.76-7.54,23,23,0,0,1,6-6.41,13.11,13.11,0,0,1,7.85-2.7,4.55,4.55,0,0,0-1.95,2.45,4.82,4.82,0,0,0,1.76,5.34,5.53,5.53,0,0,0,3.45,1A7.15,7.15,0,0,0,400.3,392a7.48,7.48,0,0,0,2.58-3.14,8.52,8.52,0,0,0,.63-4.15A8.31,8.31,0,0,0,402,380.6a9.94,9.94,0,0,0-3.89-3.14,15.07,15.07,0,0,0-6.59-1.26,28,28,0,0,0-13.94,3.39,30.72,30.72,0,0,0-9.8,8.48,31.32,31.32,0,0,0-5.28,11.05,25,25,0,0,0-.5,11.05,15.16,15.16,0,0,0,4.71,8.48q3.7,3.39,10.24,3.39a34.11,34.11,0,0,0,10.36-1.57,53.17,53.17,0,0,0,9.36-4,55.67,55.67,0,0,0,8-5.27l0.09-.07a13.56,13.56,0,0,0,3.3,7.1,9.75,9.75,0,0,0,4.9,3.2,14.26,14.26,0,0,0,6.28.25,28.83,28.83,0,0,0,7-2.2,51,51,0,0,0,7.41-4.15,8,8,0,0,0,5.15,5.78,10.48,10.48,0,0,0,6.53.19,26.66,26.66,0,0,0,7.22-3.27,60.51,60.51,0,0,0,7.47-5.59c1-.88,2-1.8,3-2.73a14.77,14.77,0,0,0,4.75,8.51,16,16,0,0,0,6.66,3.27,16.77,16.77,0,0,0,8.42-.44,38.5,38.5,0,0,0,10.3-5,69.83,69.83,0,0,0,8.55-6.79c0,0.29.06,0.6,0.12,0.88a15.15,15.15,0,0,0,4.71,8.48q3.7,3.39,10.24,3.39a34.1,34.1,0,0,0,10.36-1.57,53.17,53.17,0,0,0,9.36-4,55.57,55.57,0,0,0,8-5.27l0.68-.55a11.73,11.73,0,0,0,3.84,7.46,13.44,13.44,0,0,0,5.53,3.08,16,16,0,0,0,6.34.38,26.05,26.05,0,0,0,6.85-1.95,43.09,43.09,0,0,0,6.91-3.77,8.79,8.79,0,0,0,1.76,2.26,9.37,9.37,0,0,0,6.72,3.2,16.93,16.93,0,0,0,7.85-2,45.26,45.26,0,0,0,8.54-5.72q2.21-1.83,4.42-3.85a14.77,14.77,0,0,0,4.75,8.5,16,16,0,0,0,6.66,3.27,16.76,16.76,0,0,0,8.42-.44,38.48,38.48,0,0,0,10.3-5,65.94,65.94,0,0,0,7-5.45,14.43,14.43,0,0,0,4.64,8.53,11.54,11.54,0,0,0,7.16,3.45,16.39,16.39,0,0,0,7.85-1.38,29,29,0,0,0,7.73-5,43.68,43.68,0,0,0,6.78-7.6,42,42,0,0,0,4.9-9.17,31.54,31.54,0,0,0,2.13-9.67q1.13,0.5,2.83,1.19a23.83,23.83,0,0,0,4.08,1.19,43.57,43.57,0,0,0,5.46.75c0.93,0.08,1.93.11,3,.12-0.68.93-1.35,1.88-2,2.9a42.4,42.4,0,0,0-3.89,7.79,18.8,18.8,0,0,0-1.44,7.66,11.92,11.92,0,0,0,1.63,5.71,9.71,9.71,0,0,0,3.89,3.58,11.51,11.51,0,0,0,5.34,1.26q5.65,0,12.25-4.33a79.85,79.85,0,0,0,8.19-6.27,11.5,11.5,0,0,0,3.18,7.22q3.89,4.15,10.61,2.83t15.38-7a11.48,11.48,0,0,0,4.15,5.15,11.14,11.14,0,0,0,6.28,2.07,21.17,21.17,0,0,0,6.91-1.07,37.66,37.66,0,0,0,7-3.08,59.87,59.87,0,0,0,6.41-4.14,66.39,66.39,0,0,0,5.27-4.33l3.71-3.39a6.32,6.32,0,0,0,2.07-3.45,2.81,2.81,0,0,0-.69-2.45,2.77,2.77,0,0,0-2.51-.63,6.39,6.39,0,0,0-3.39,2,25.32,25.32,0,0,1-5.84,4.21A29.86,29.86,0,0,1,773,408.1a14.28,14.28,0,0,1-6.47.25,4.75,4.75,0,0,1-3.77-3.39,227.94,227.94,0,0,0,18.84-19.72,302,302,0,0,0,19.47-25.5q4.65-6.78,5.59-12.06t-0.88-8.1" transform="translate(-217.53 -323.15)"/></svg>